<mxfile host="app.diagrams.net" modified="2024-05-08T23:08:18.274Z" agent="Mozilla/5.0 (Windows NT 10.0; Win64; x64) AppleWebKit/537.36 (KHTML, like Gecko) Chrome/124.0.0.0 Safari/537.36" etag="p0Wki_rlTPQY1PStvJas" version="24.3.1" type="device">
  <diagram id="C5RBs43oDa-KdzZeNtuy" name="Page-1">
    <mxGraphModel dx="1877" dy="1726" grid="1" gridSize="10" guides="1" tooltips="1" connect="1" arrows="1" fold="1" page="1" pageScale="1" pageWidth="827" pageHeight="1169" math="0" shadow="0">
      <root>
        <mxCell id="WIyWlLk6GJQsqaUBKTNV-0" />
        <mxCell id="WIyWlLk6GJQsqaUBKTNV-1" parent="WIyWlLk6GJQsqaUBKTNV-0" />
        <mxCell id="2cK4TgwKpD_XF9wTNDXS-3" style="edgeStyle=orthogonalEdgeStyle;rounded=0;orthogonalLoop=1;jettySize=auto;html=1;exitX=0.5;exitY=1;exitDx=0;exitDy=0;entryX=0.5;entryY=0;entryDx=0;entryDy=0;" parent="WIyWlLk6GJQsqaUBKTNV-1" source="2cK4TgwKpD_XF9wTNDXS-0" target="2cK4TgwKpD_XF9wTNDXS-1" edge="1">
          <mxGeometry relative="1" as="geometry" />
        </mxCell>
        <mxCell id="2cK4TgwKpD_XF9wTNDXS-0" value="Inicio" style="ellipse;whiteSpace=wrap;html=1;" parent="WIyWlLk6GJQsqaUBKTNV-1" vertex="1">
          <mxGeometry x="360" y="-10" width="80" height="50" as="geometry" />
        </mxCell>
        <mxCell id="2cK4TgwKpD_XF9wTNDXS-5" style="edgeStyle=orthogonalEdgeStyle;rounded=0;orthogonalLoop=1;jettySize=auto;html=1;exitX=1;exitY=0.5;exitDx=0;exitDy=0;" parent="WIyWlLk6GJQsqaUBKTNV-1" source="2cK4TgwKpD_XF9wTNDXS-1" target="2cK4TgwKpD_XF9wTNDXS-4" edge="1">
          <mxGeometry relative="1" as="geometry" />
        </mxCell>
        <mxCell id="2cK4TgwKpD_XF9wTNDXS-29" style="edgeStyle=orthogonalEdgeStyle;rounded=0;orthogonalLoop=1;jettySize=auto;html=1;exitX=0.5;exitY=1;exitDx=0;exitDy=0;entryX=0.5;entryY=0;entryDx=0;entryDy=0;" parent="WIyWlLk6GJQsqaUBKTNV-1" source="2cK4TgwKpD_XF9wTNDXS-1" edge="1">
          <mxGeometry relative="1" as="geometry">
            <mxPoint x="-15" y="220" as="targetPoint" />
          </mxGeometry>
        </mxCell>
        <mxCell id="2cK4TgwKpD_XF9wTNDXS-1" value="¿number es igual a 1?" style="rhombus;whiteSpace=wrap;html=1;" parent="WIyWlLk6GJQsqaUBKTNV-1" vertex="1">
          <mxGeometry x="-60" y="100" width="90" height="80" as="geometry" />
        </mxCell>
        <mxCell id="2cK4TgwKpD_XF9wTNDXS-11" style="edgeStyle=orthogonalEdgeStyle;rounded=0;orthogonalLoop=1;jettySize=auto;html=1;exitX=1;exitY=0.5;exitDx=0;exitDy=0;" parent="WIyWlLk6GJQsqaUBKTNV-1" source="2cK4TgwKpD_XF9wTNDXS-4" target="2cK4TgwKpD_XF9wTNDXS-10" edge="1">
          <mxGeometry relative="1" as="geometry" />
        </mxCell>
        <mxCell id="2cK4TgwKpD_XF9wTNDXS-33" style="edgeStyle=orthogonalEdgeStyle;rounded=0;orthogonalLoop=1;jettySize=auto;html=1;exitX=0.5;exitY=1;exitDx=0;exitDy=0;entryX=0.5;entryY=0;entryDx=0;entryDy=0;" parent="WIyWlLk6GJQsqaUBKTNV-1" source="2cK4TgwKpD_XF9wTNDXS-4" edge="1">
          <mxGeometry relative="1" as="geometry">
            <mxPoint x="135" y="220" as="targetPoint" />
          </mxGeometry>
        </mxCell>
        <mxCell id="2cK4TgwKpD_XF9wTNDXS-4" value="¿number es igual a 2?" style="rhombus;whiteSpace=wrap;html=1;" parent="WIyWlLk6GJQsqaUBKTNV-1" vertex="1">
          <mxGeometry x="90" y="95" width="90" height="90" as="geometry" />
        </mxCell>
        <mxCell id="2cK4TgwKpD_XF9wTNDXS-6" value="No" style="text;html=1;align=center;verticalAlign=middle;resizable=0;points=[];autosize=1;strokeColor=none;fillColor=none;" parent="WIyWlLk6GJQsqaUBKTNV-1" vertex="1">
          <mxGeometry x="40" y="110" width="40" height="30" as="geometry" />
        </mxCell>
        <mxCell id="2cK4TgwKpD_XF9wTNDXS-14" style="edgeStyle=orthogonalEdgeStyle;rounded=0;orthogonalLoop=1;jettySize=auto;html=1;exitX=1;exitY=0.5;exitDx=0;exitDy=0;entryX=0;entryY=0.5;entryDx=0;entryDy=0;" parent="WIyWlLk6GJQsqaUBKTNV-1" source="2cK4TgwKpD_XF9wTNDXS-10" target="2cK4TgwKpD_XF9wTNDXS-13" edge="1">
          <mxGeometry relative="1" as="geometry" />
        </mxCell>
        <mxCell id="2cK4TgwKpD_XF9wTNDXS-32" style="edgeStyle=orthogonalEdgeStyle;rounded=0;orthogonalLoop=1;jettySize=auto;html=1;exitX=0.5;exitY=1;exitDx=0;exitDy=0;entryX=0.5;entryY=0;entryDx=0;entryDy=0;" parent="WIyWlLk6GJQsqaUBKTNV-1" source="2cK4TgwKpD_XF9wTNDXS-10" edge="1">
          <mxGeometry relative="1" as="geometry">
            <mxPoint x="280" y="220" as="targetPoint" />
          </mxGeometry>
        </mxCell>
        <mxCell id="2cK4TgwKpD_XF9wTNDXS-10" value="¿number es igual a 3?" style="rhombus;whiteSpace=wrap;html=1;" parent="WIyWlLk6GJQsqaUBKTNV-1" vertex="1">
          <mxGeometry x="230" y="95" width="90" height="90" as="geometry" />
        </mxCell>
        <mxCell id="2cK4TgwKpD_XF9wTNDXS-12" value="No" style="text;html=1;align=center;verticalAlign=middle;resizable=0;points=[];autosize=1;strokeColor=none;fillColor=none;" parent="WIyWlLk6GJQsqaUBKTNV-1" vertex="1">
          <mxGeometry x="180" y="110" width="40" height="30" as="geometry" />
        </mxCell>
        <mxCell id="2cK4TgwKpD_XF9wTNDXS-19" style="edgeStyle=orthogonalEdgeStyle;rounded=0;orthogonalLoop=1;jettySize=auto;html=1;exitX=1;exitY=0.5;exitDx=0;exitDy=0;entryX=0;entryY=0.5;entryDx=0;entryDy=0;" parent="WIyWlLk6GJQsqaUBKTNV-1" source="2cK4TgwKpD_XF9wTNDXS-13" target="2cK4TgwKpD_XF9wTNDXS-18" edge="1">
          <mxGeometry relative="1" as="geometry" />
        </mxCell>
        <mxCell id="2cK4TgwKpD_XF9wTNDXS-35" style="edgeStyle=orthogonalEdgeStyle;rounded=0;orthogonalLoop=1;jettySize=auto;html=1;exitX=0.5;exitY=1;exitDx=0;exitDy=0;entryX=0.5;entryY=0;entryDx=0;entryDy=0;" parent="WIyWlLk6GJQsqaUBKTNV-1" source="2cK4TgwKpD_XF9wTNDXS-13" edge="1">
          <mxGeometry relative="1" as="geometry">
            <mxPoint x="415" y="220" as="targetPoint" />
          </mxGeometry>
        </mxCell>
        <mxCell id="2cK4TgwKpD_XF9wTNDXS-13" value="¿number es igual a 4 ?" style="rhombus;whiteSpace=wrap;html=1;" parent="WIyWlLk6GJQsqaUBKTNV-1" vertex="1">
          <mxGeometry x="360" y="95" width="90" height="90" as="geometry" />
        </mxCell>
        <mxCell id="2cK4TgwKpD_XF9wTNDXS-15" value="No" style="text;html=1;align=center;verticalAlign=middle;resizable=0;points=[];autosize=1;strokeColor=none;fillColor=none;" parent="WIyWlLk6GJQsqaUBKTNV-1" vertex="1">
          <mxGeometry x="320" y="110" width="40" height="30" as="geometry" />
        </mxCell>
        <mxCell id="2cK4TgwKpD_XF9wTNDXS-22" value="" style="edgeStyle=orthogonalEdgeStyle;rounded=0;orthogonalLoop=1;jettySize=auto;html=1;" parent="WIyWlLk6GJQsqaUBKTNV-1" source="2cK4TgwKpD_XF9wTNDXS-18" target="2cK4TgwKpD_XF9wTNDXS-21" edge="1">
          <mxGeometry relative="1" as="geometry" />
        </mxCell>
        <mxCell id="2cK4TgwKpD_XF9wTNDXS-37" style="edgeStyle=orthogonalEdgeStyle;rounded=0;orthogonalLoop=1;jettySize=auto;html=1;exitX=0.5;exitY=1;exitDx=0;exitDy=0;entryX=0.5;entryY=0;entryDx=0;entryDy=0;" parent="WIyWlLk6GJQsqaUBKTNV-1" source="2cK4TgwKpD_XF9wTNDXS-18" edge="1">
          <mxGeometry relative="1" as="geometry">
            <mxPoint x="540" y="220" as="targetPoint" />
          </mxGeometry>
        </mxCell>
        <mxCell id="2cK4TgwKpD_XF9wTNDXS-18" value="¿number es igual a 5?" style="rhombus;whiteSpace=wrap;html=1;" parent="WIyWlLk6GJQsqaUBKTNV-1" vertex="1">
          <mxGeometry x="490" y="97.5" width="90" height="85" as="geometry" />
        </mxCell>
        <mxCell id="2cK4TgwKpD_XF9wTNDXS-20" value="No" style="text;html=1;align=center;verticalAlign=middle;resizable=0;points=[];autosize=1;strokeColor=none;fillColor=none;" parent="WIyWlLk6GJQsqaUBKTNV-1" vertex="1">
          <mxGeometry x="450" y="110" width="40" height="30" as="geometry" />
        </mxCell>
        <mxCell id="2cK4TgwKpD_XF9wTNDXS-24" style="edgeStyle=orthogonalEdgeStyle;rounded=0;orthogonalLoop=1;jettySize=auto;html=1;exitX=1;exitY=0.5;exitDx=0;exitDy=0;entryX=0;entryY=0.5;entryDx=0;entryDy=0;" parent="WIyWlLk6GJQsqaUBKTNV-1" source="2cK4TgwKpD_XF9wTNDXS-21" target="2cK4TgwKpD_XF9wTNDXS-23" edge="1">
          <mxGeometry relative="1" as="geometry" />
        </mxCell>
        <mxCell id="2cK4TgwKpD_XF9wTNDXS-40" style="edgeStyle=orthogonalEdgeStyle;rounded=0;orthogonalLoop=1;jettySize=auto;html=1;exitX=0.5;exitY=1;exitDx=0;exitDy=0;entryX=0.5;entryY=0;entryDx=0;entryDy=0;" parent="WIyWlLk6GJQsqaUBKTNV-1" source="2cK4TgwKpD_XF9wTNDXS-21" edge="1">
          <mxGeometry relative="1" as="geometry">
            <mxPoint x="665" y="220" as="targetPoint" />
          </mxGeometry>
        </mxCell>
        <mxCell id="2cK4TgwKpD_XF9wTNDXS-21" value="¿number es igual a 6?" style="rhombus;whiteSpace=wrap;html=1;" parent="WIyWlLk6GJQsqaUBKTNV-1" vertex="1">
          <mxGeometry x="610" y="95" width="90" height="92" as="geometry" />
        </mxCell>
        <mxCell id="2cK4TgwKpD_XF9wTNDXS-41" style="edgeStyle=orthogonalEdgeStyle;rounded=0;orthogonalLoop=1;jettySize=auto;html=1;exitX=0.5;exitY=1;exitDx=0;exitDy=0;entryX=0.5;entryY=0;entryDx=0;entryDy=0;" parent="WIyWlLk6GJQsqaUBKTNV-1" source="2cK4TgwKpD_XF9wTNDXS-23" edge="1">
          <mxGeometry relative="1" as="geometry">
            <mxPoint x="790" y="220" as="targetPoint" />
          </mxGeometry>
        </mxCell>
        <mxCell id="2cK4TgwKpD_XF9wTNDXS-43" style="edgeStyle=orthogonalEdgeStyle;rounded=0;orthogonalLoop=1;jettySize=auto;html=1;exitX=1;exitY=0.5;exitDx=0;exitDy=0;" parent="WIyWlLk6GJQsqaUBKTNV-1" source="2cK4TgwKpD_XF9wTNDXS-23" edge="1">
          <mxGeometry relative="1" as="geometry">
            <mxPoint x="935" y="220" as="targetPoint" />
          </mxGeometry>
        </mxCell>
        <mxCell id="2cK4TgwKpD_XF9wTNDXS-23" value="¿number es igual a 7?" style="rhombus;whiteSpace=wrap;html=1;" parent="WIyWlLk6GJQsqaUBKTNV-1" vertex="1">
          <mxGeometry x="737" y="95" width="90" height="92.5" as="geometry" />
        </mxCell>
        <mxCell id="2cK4TgwKpD_XF9wTNDXS-25" value="No" style="text;html=1;align=center;verticalAlign=middle;resizable=0;points=[];autosize=1;strokeColor=none;fillColor=none;" parent="WIyWlLk6GJQsqaUBKTNV-1" vertex="1">
          <mxGeometry x="570" y="110" width="40" height="30" as="geometry" />
        </mxCell>
        <mxCell id="2cK4TgwKpD_XF9wTNDXS-26" value="No" style="text;html=1;align=center;verticalAlign=middle;resizable=0;points=[];autosize=1;strokeColor=none;fillColor=none;" parent="WIyWlLk6GJQsqaUBKTNV-1" vertex="1">
          <mxGeometry x="700" y="110" width="40" height="30" as="geometry" />
        </mxCell>
        <mxCell id="2cK4TgwKpD_XF9wTNDXS-54" style="edgeStyle=orthogonalEdgeStyle;rounded=0;orthogonalLoop=1;jettySize=auto;html=1;exitX=0.5;exitY=1;exitDx=0;exitDy=0;entryX=0;entryY=1;entryDx=0;entryDy=0;" parent="WIyWlLk6GJQsqaUBKTNV-1" target="2cK4TgwKpD_XF9wTNDXS-52" edge="1">
          <mxGeometry relative="1" as="geometry">
            <Array as="points">
              <mxPoint x="135" y="440" />
              <mxPoint x="442" y="440" />
            </Array>
            <mxPoint x="135" y="280" as="sourcePoint" />
          </mxGeometry>
        </mxCell>
        <mxCell id="2cK4TgwKpD_XF9wTNDXS-56" style="edgeStyle=orthogonalEdgeStyle;rounded=0;orthogonalLoop=1;jettySize=auto;html=1;exitX=0.5;exitY=1;exitDx=0;exitDy=0;entryX=0;entryY=0;entryDx=0;entryDy=0;" parent="WIyWlLk6GJQsqaUBKTNV-1" target="2cK4TgwKpD_XF9wTNDXS-52" edge="1">
          <mxGeometry relative="1" as="geometry">
            <mxPoint x="415" y="280" as="sourcePoint" />
          </mxGeometry>
        </mxCell>
        <mxCell id="2cK4TgwKpD_XF9wTNDXS-58" style="edgeStyle=orthogonalEdgeStyle;rounded=0;orthogonalLoop=1;jettySize=auto;html=1;exitX=0.5;exitY=1;exitDx=0;exitDy=0;entryX=1;entryY=0;entryDx=0;entryDy=0;" parent="WIyWlLk6GJQsqaUBKTNV-1" target="2cK4TgwKpD_XF9wTNDXS-52" edge="1">
          <mxGeometry relative="1" as="geometry">
            <mxPoint x="540" y="280" as="sourcePoint" />
          </mxGeometry>
        </mxCell>
        <mxCell id="2cK4TgwKpD_XF9wTNDXS-44" value="No" style="text;html=1;align=center;verticalAlign=middle;resizable=0;points=[];autosize=1;strokeColor=none;fillColor=none;" parent="WIyWlLk6GJQsqaUBKTNV-1" vertex="1">
          <mxGeometry x="880" y="110" width="40" height="30" as="geometry" />
        </mxCell>
        <mxCell id="2cK4TgwKpD_XF9wTNDXS-45" value="Si" style="text;html=1;align=center;verticalAlign=middle;resizable=0;points=[];autosize=1;strokeColor=none;fillColor=none;" parent="WIyWlLk6GJQsqaUBKTNV-1" vertex="1">
          <mxGeometry x="-45" y="178" width="30" height="30" as="geometry" />
        </mxCell>
        <mxCell id="2cK4TgwKpD_XF9wTNDXS-46" value="Si" style="text;html=1;align=center;verticalAlign=middle;resizable=0;points=[];autosize=1;strokeColor=none;fillColor=none;" parent="WIyWlLk6GJQsqaUBKTNV-1" vertex="1">
          <mxGeometry x="105" y="178" width="30" height="30" as="geometry" />
        </mxCell>
        <mxCell id="2cK4TgwKpD_XF9wTNDXS-47" value="Si" style="text;html=1;align=center;verticalAlign=middle;resizable=0;points=[];autosize=1;strokeColor=none;fillColor=none;" parent="WIyWlLk6GJQsqaUBKTNV-1" vertex="1">
          <mxGeometry x="245" y="178" width="30" height="30" as="geometry" />
        </mxCell>
        <mxCell id="2cK4TgwKpD_XF9wTNDXS-48" value="Si" style="text;html=1;align=center;verticalAlign=middle;resizable=0;points=[];autosize=1;strokeColor=none;fillColor=none;" parent="WIyWlLk6GJQsqaUBKTNV-1" vertex="1">
          <mxGeometry x="385" y="188" width="30" height="30" as="geometry" />
        </mxCell>
        <mxCell id="2cK4TgwKpD_XF9wTNDXS-49" value="Si" style="text;html=1;align=center;verticalAlign=middle;resizable=0;points=[];autosize=1;strokeColor=none;fillColor=none;" parent="WIyWlLk6GJQsqaUBKTNV-1" vertex="1">
          <mxGeometry x="515" y="178" width="30" height="30" as="geometry" />
        </mxCell>
        <mxCell id="2cK4TgwKpD_XF9wTNDXS-50" value="Si" style="text;html=1;align=center;verticalAlign=middle;resizable=0;points=[];autosize=1;strokeColor=none;fillColor=none;" parent="WIyWlLk6GJQsqaUBKTNV-1" vertex="1">
          <mxGeometry x="640" y="185" width="30" height="30" as="geometry" />
        </mxCell>
        <mxCell id="2cK4TgwKpD_XF9wTNDXS-51" value="Si" style="text;html=1;align=center;verticalAlign=middle;resizable=0;points=[];autosize=1;strokeColor=none;fillColor=none;" parent="WIyWlLk6GJQsqaUBKTNV-1" vertex="1">
          <mxGeometry x="755" y="178" width="30" height="30" as="geometry" />
        </mxCell>
        <mxCell id="2cK4TgwKpD_XF9wTNDXS-52" value="Fin" style="ellipse;whiteSpace=wrap;html=1;" parent="WIyWlLk6GJQsqaUBKTNV-1" vertex="1">
          <mxGeometry x="420" y="340" width="150" height="100" as="geometry" />
        </mxCell>
        <mxCell id="2cK4TgwKpD_XF9wTNDXS-59" style="edgeStyle=orthogonalEdgeStyle;rounded=0;orthogonalLoop=1;jettySize=auto;html=1;exitX=0.5;exitY=1;exitDx=0;exitDy=0;entryX=1.028;entryY=0.576;entryDx=0;entryDy=0;entryPerimeter=0;" parent="WIyWlLk6GJQsqaUBKTNV-1" target="2cK4TgwKpD_XF9wTNDXS-52" edge="1">
          <mxGeometry relative="1" as="geometry">
            <Array as="points">
              <mxPoint x="665" y="400" />
              <mxPoint x="600" y="400" />
              <mxPoint x="600" y="398" />
            </Array>
            <mxPoint x="665" y="280" as="sourcePoint" />
          </mxGeometry>
        </mxCell>
        <mxCell id="2cK4TgwKpD_XF9wTNDXS-61" style="edgeStyle=orthogonalEdgeStyle;rounded=0;orthogonalLoop=1;jettySize=auto;html=1;exitX=0.5;exitY=1;exitDx=0;exitDy=0;entryX=0.665;entryY=1;entryDx=0;entryDy=0;entryPerimeter=0;" parent="WIyWlLk6GJQsqaUBKTNV-1" target="2cK4TgwKpD_XF9wTNDXS-52" edge="1">
          <mxGeometry relative="1" as="geometry">
            <mxPoint x="935" y="280" as="sourcePoint" />
          </mxGeometry>
        </mxCell>
        <mxCell id="8wAjVNkl58Yx_dLotJ-p-1" style="edgeStyle=orthogonalEdgeStyle;rounded=0;orthogonalLoop=1;jettySize=auto;html=1;exitX=0.5;exitY=1;exitDx=0;exitDy=0;entryX=0.5;entryY=1;entryDx=0;entryDy=0;" edge="1" parent="WIyWlLk6GJQsqaUBKTNV-1" source="8wAjVNkl58Yx_dLotJ-p-0" target="2cK4TgwKpD_XF9wTNDXS-52">
          <mxGeometry relative="1" as="geometry" />
        </mxCell>
        <mxCell id="8wAjVNkl58Yx_dLotJ-p-0" value="Mostrar &quot;Monday&quot;" style="shape=parallelogram;perimeter=parallelogramPerimeter;whiteSpace=wrap;html=1;fixedSize=1;" vertex="1" parent="WIyWlLk6GJQsqaUBKTNV-1">
          <mxGeometry x="-90" y="220" width="135" height="60" as="geometry" />
        </mxCell>
        <mxCell id="8wAjVNkl58Yx_dLotJ-p-2" value="Mostrar &quot;Tuesday&quot;" style="shape=parallelogram;perimeter=parallelogramPerimeter;whiteSpace=wrap;html=1;fixedSize=1;" vertex="1" parent="WIyWlLk6GJQsqaUBKTNV-1">
          <mxGeometry x="60" y="220" width="135" height="60" as="geometry" />
        </mxCell>
        <mxCell id="8wAjVNkl58Yx_dLotJ-p-4" style="edgeStyle=orthogonalEdgeStyle;rounded=0;orthogonalLoop=1;jettySize=auto;html=1;exitX=0.5;exitY=1;exitDx=0;exitDy=0;entryX=0;entryY=0.5;entryDx=0;entryDy=0;" edge="1" parent="WIyWlLk6GJQsqaUBKTNV-1" source="8wAjVNkl58Yx_dLotJ-p-3" target="2cK4TgwKpD_XF9wTNDXS-52">
          <mxGeometry relative="1" as="geometry" />
        </mxCell>
        <mxCell id="8wAjVNkl58Yx_dLotJ-p-3" value="Mostrar &quot;Wednesday&quot;" style="shape=parallelogram;perimeter=parallelogramPerimeter;whiteSpace=wrap;html=1;fixedSize=1;" vertex="1" parent="WIyWlLk6GJQsqaUBKTNV-1">
          <mxGeometry x="200" y="220" width="150" height="60" as="geometry" />
        </mxCell>
        <mxCell id="8wAjVNkl58Yx_dLotJ-p-5" value="Mostrar &quot;Thursday&quot;" style="shape=parallelogram;perimeter=parallelogramPerimeter;whiteSpace=wrap;html=1;fixedSize=1;" vertex="1" parent="WIyWlLk6GJQsqaUBKTNV-1">
          <mxGeometry x="346" y="220" width="136" height="60" as="geometry" />
        </mxCell>
        <mxCell id="8wAjVNkl58Yx_dLotJ-p-6" value="Mostrar &quot;Friday&quot;" style="shape=parallelogram;perimeter=parallelogramPerimeter;whiteSpace=wrap;html=1;fixedSize=1;" vertex="1" parent="WIyWlLk6GJQsqaUBKTNV-1">
          <mxGeometry x="482" y="220" width="120" height="60" as="geometry" />
        </mxCell>
        <mxCell id="8wAjVNkl58Yx_dLotJ-p-7" value="Mostrar &quot;Saturday&quot;" style="shape=parallelogram;perimeter=parallelogramPerimeter;whiteSpace=wrap;html=1;fixedSize=1;" vertex="1" parent="WIyWlLk6GJQsqaUBKTNV-1">
          <mxGeometry x="602" y="220" width="128" height="60" as="geometry" />
        </mxCell>
        <mxCell id="8wAjVNkl58Yx_dLotJ-p-8" value="Mostrar &quot;Sunday&quot;" style="shape=parallelogram;perimeter=parallelogramPerimeter;whiteSpace=wrap;html=1;fixedSize=1;" vertex="1" parent="WIyWlLk6GJQsqaUBKTNV-1">
          <mxGeometry x="730" y="220" width="120" height="60" as="geometry" />
        </mxCell>
        <mxCell id="8wAjVNkl58Yx_dLotJ-p-10" style="edgeStyle=orthogonalEdgeStyle;rounded=0;orthogonalLoop=1;jettySize=auto;html=1;exitX=0.5;exitY=1;exitDx=0;exitDy=0;entryX=1;entryY=1;entryDx=0;entryDy=0;" edge="1" parent="WIyWlLk6GJQsqaUBKTNV-1" source="8wAjVNkl58Yx_dLotJ-p-9" target="2cK4TgwKpD_XF9wTNDXS-52">
          <mxGeometry relative="1" as="geometry">
            <Array as="points">
              <mxPoint x="935" y="425" />
            </Array>
          </mxGeometry>
        </mxCell>
        <mxCell id="8wAjVNkl58Yx_dLotJ-p-9" value="Mostrar &quot;Invalid input&quot;" style="shape=parallelogram;perimeter=parallelogramPerimeter;whiteSpace=wrap;html=1;fixedSize=1;" vertex="1" parent="WIyWlLk6GJQsqaUBKTNV-1">
          <mxGeometry x="860" y="220" width="150" height="60" as="geometry" />
        </mxCell>
      </root>
    </mxGraphModel>
  </diagram>
</mxfile>
